<svg id="Calque_1" data-name="Calque 1" xmlns="http://www.w3.org/2000/svg" xmlns:xlink="http://www.w3.org/1999/xlink" viewBox="0 0 406.47 58.58"><defs><style>.cls-1,.cls-2{fill-rule:evenodd;}.cls-1{fill:url(#linear-gradient);}.cls-2{fill:#fff;}</style><linearGradient id="linear-gradient" x1="38.4" y1="9.32" x2="38.4" y2="67.9" gradientUnits="userSpaceOnUse"><stop offset="0" stop-color="#418ecd"/><stop offset="1" stop-color="#a4aeb9"/></linearGradient></defs><path class="cls-1" d="M13,9.32H29.64a20.26,20.26,0,0,1,7.83,1.56A21.12,21.12,0,0,1,41,12.78a21.48,21.48,0,0,1,3.12,2.56A20.73,20.73,0,0,1,48.6,22a20,20,0,0,1,1.16,3.83,20.32,20.32,0,0,1,.4,4V55.28a4.89,4.89,0,0,0,.09,1,5.12,5.12,0,0,0,.28.92A5,5,0,0,0,51,58a4.84,4.84,0,0,0,.62.75,4.5,4.5,0,0,0,1.6,1.07,5.16,5.16,0,0,0,.92.29,4.86,4.86,0,0,0,.95.09h0a4.89,4.89,0,0,0,1-.09,5.16,5.16,0,0,0,.92-.29,5,5,0,0,0,2.56-2.41A4.8,4.8,0,0,0,60,55.88a.62.62,0,0,1,.62-.57H67.1a.6.6,0,0,1,.58.64,13.39,13.39,0,0,1-.29,2.11,12.64,12.64,0,0,1-.65,2,12.38,12.38,0,0,1-1.17,2.18A13.16,13.16,0,0,1,64,64.2a12.83,12.83,0,0,1-4.1,2.74,12.52,12.52,0,0,1-4.82,1h0a12.54,12.54,0,0,1-7-2.13,12.76,12.76,0,0,1-1.92-1.57h0a13.25,13.25,0,0,1-1.58-1.91,13.85,13.85,0,0,1-1.17-2.18,12.84,12.84,0,0,1-.71-2.36,12.51,12.51,0,0,1-.24-2.46V29.84a12.74,12.74,0,0,0-.25-2.49,12.61,12.61,0,0,0-.73-2.4,12.78,12.78,0,0,0-1.19-2.22,12.85,12.85,0,0,0-3.55-3.55A12.47,12.47,0,0,0,34.53,18a12.86,12.86,0,0,0-4.89-1H16.81v9H30.46a3.88,3.88,0,0,1,2.68,1.1l0,0,0,0a3.88,3.88,0,0,1,1.1,2.68v3.23a.61.61,0,0,1-.62.61H17.41v0A13.63,13.63,0,0,0,18,35.15a12.39,12.39,0,0,0,.72,1.34,13,13,0,0,0,.88,1.26,13.5,13.5,0,0,0,1,1.14s0,0,0,0a13.63,13.63,0,0,0,1.91,1.57,13.91,13.91,0,0,0,2.22,1.19,12.6,12.6,0,0,0,4.89,1h4a.62.62,0,0,1,.62.62v6.46a.61.61,0,0,1-.62.61h-4a20.22,20.22,0,0,1-4-.39,20.78,20.78,0,0,1-3.84-1.16,20.47,20.47,0,0,1-3.54-1.91,19.78,19.78,0,0,1-3.12-2.56,20.91,20.91,0,0,1-2.57-3.12,21.12,21.12,0,0,1-1.9-3.54,20.76,20.76,0,0,1-1.56-7.83V9.93a.62.62,0,0,1,.62-.61Z" transform="translate(-9.12 -9.32)"/><path class="cls-2" d="M77.62,23.85V42.93H92V39H82V35.3H90.3v-4H82V27.83h9.92v-4Zm25.8,0V42.93H117V39h-9.21V23.85Zm24.78,0V42.93h14.39V39H132.53V35.3h8.34v-4h-8.34V27.83h9.92v-4Zm30.12,12.81h4.34a6.85,6.85,0,0,0,4.9-1.83,6.23,6.23,0,0,0,0-9.13,6.86,6.86,0,0,0-4.9-1.85H154V42.93h4.33V36.66Zm4.34-8.83a2.43,2.43,0,0,1,0,4.85h-4.34V27.83Zm22.65,15.1V35.27h8.26v7.66h4.31V23.85h-4.31v7.44h-8.26V23.85H181V42.93Zm27.92,0,1.31-3.22h8l1.3,3.22h4.5l-8-19.08h-3.57L208.7,42.93ZM221,35.84h-4.8l2.4-5.86,2.4,5.86Zm22.4,7.09V31.29l9.08,11.64h3.85V23.85h-4.17V35.54L243,23.85h-3.85V42.93Zm31.47-16.79V42.93h2.45V26.14h7.14V23.85H267.67v2.29Zm21.39,16.79,1.85-4.28h9.85l1.85,4.28h2.59L304,23.85h-2l-8.37,19.08Zm10.69-6.57h-7.83l3.93-9,3.9,9Zm31-8.56a5.23,5.23,0,0,0-2.29-3.05,7.55,7.55,0,0,0-4.28-1.2,6.9,6.9,0,0,0-4.61,1.52,4.9,4.9,0,0,0-1.8,3.93A4.2,4.2,0,0,0,326,31.94a5.25,5.25,0,0,0,1.61,1.18c.44.19.76.35,1,.43l1.12.38,1.06.33,1.15.3a11.29,11.29,0,0,1,2.75,1A2.26,2.26,0,0,1,336,37.7,2.72,2.72,0,0,1,334.75,40a5.58,5.58,0,0,1-3.19.87c-2.48,0-4.39-1.28-4.69-2.92l-2.45.74A5.58,5.58,0,0,0,326.87,42a8.41,8.41,0,0,0,4.69,1.28,7.53,7.53,0,0,0,5-1.58,5.07,5.07,0,0,0,2-4.15,4.53,4.53,0,0,0-2.76-4.28,13.91,13.91,0,0,0-3.13-1.06,17.18,17.18,0,0,1-3.68-1.2,2.27,2.27,0,0,1-1.53-2.12,2.49,2.49,0,0,1,1.12-2.08,4.61,4.61,0,0,1,2.83-.84c2.1,0,3.79,1.14,4.12,2.59l2.43-.71Zm19.81-1.66V42.93h2.45V26.14h7.15V23.85H350.56v2.29Zm25.4,16.79V23.85h-2.45V42.93ZM407,23.55a9.64,9.64,0,0,0-9.85,9.84A9.6,9.6,0,0,0,407,43.23a9.76,9.76,0,0,0,8.64-5l-2.4-.9A7.12,7.12,0,0,1,407,40.86a7,7,0,0,1-5.21-2.13,7.4,7.4,0,0,1-2.1-5.34,7.31,7.31,0,0,1,2.1-5.32A6.94,6.94,0,0,1,407,25.92a7.1,7.1,0,0,1,6.24,3.49l2.4-.9a9.74,9.74,0,0,0-8.64-5Z" transform="translate(-9.12 -9.32)"/></svg>